<mxfile host="Electron" agent="Mozilla/5.0 (X11; Linux x86_64) AppleWebKit/537.36 (KHTML, like Gecko) draw.io/26.0.4 Chrome/130.0.6723.170 Electron/33.3.1 Safari/537.36" version="26.0.4">
  <diagram name="Page-1" id="nS_EI0iDueU_NhSjiNlb">
    <mxGraphModel dx="1464" dy="295" grid="1" gridSize="10" guides="1" tooltips="1" connect="1" arrows="1" fold="1" page="1" pageScale="1" pageWidth="850" pageHeight="1100" math="0" shadow="0">
      <root>
        <mxCell id="0" />
        <mxCell id="1" parent="0" />
        <mxCell id="8i4fituLQPOiyPfPjGGb-1" value="" style="shape=image;verticalLabelPosition=bottom;labelBackgroundColor=default;verticalAlign=top;aspect=fixed;imageAspect=0;image=data:image/svg+xml,PHN2ZyB4bWxucz0iaHR0cDovL3d3dy53My5vcmcvMjAwMC9zdmciIGlkPSJzdmcxIiB2ZXJzaW9uPSIxLjEiIHZpZXdCb3g9IjAgMCA1MTIgMjg4IiBoZWlnaHQ9IjI4OCIgd2lkdGg9IjUxMiI+JiN4YTsgICYjeGE7ICAgICYjeGE7ICAmI3hhOyAgPGRlZnMgaWQ9ImRlZnMxIi8+JiN4YTsgIDxnIGlkPSJsYXllcjEiPiYjeGE7ICAgIDxyZWN0IHk9IjAiIHg9IjAiIGhlaWdodD0iMjg4IiB3aWR0aD0iNTEyIiBpZD0icmVjdDEiIHN0eWxlPSJmaWxsOiMwMDAwMDA7ZmlsbC1vcGFjaXR5OjE7c3Ryb2tlOm5vbmU7c3Ryb2tlLXdpZHRoOjAiLz4mI3hhOyAgICA8cmVjdCB0cmFuc2Zvcm09InJvdGF0ZSg0NSkiIHk9Ii0xNDQuMTk1OTUiIHg9IjIxNy44NDI3MSIgaGVpZ2h0PSIxMzAiIHdpZHRoPSIxMzAiIGlkPSJyZWN0MiIgc3R5bGU9ImZpbGw6I2ZmZmZmZjtmaWxsLW9wYWNpdHk6MTtzdHJva2U6bm9uZTtzdHJva2Utd2lkdGg6MCIvPiYjeGE7ICAgIDx0ZXh0IGlkPSJ0ZXh0MyIgeT0iMjc3LjYwOTM4IiB4PSI0MDAuMTgzNTkiIHN0eWxlPSJmb250LXdlaWdodDo2MDA7Zm9udC1zaXplOjQwcHg7bGluZS1oZWlnaHQ6MDtmb250LWZhbWlseTonTm90byBTZXJpZiBDSksgSlAnOy1pbmtzY2FwZS1mb250LXNwZWNpZmljYXRpb246J05vdG8gU2VyaWYgQ0pLIEpQIFNlbWktQm9sZCc7dGV4dC1hbGlnbjpzdGFydDt3cml0aW5nLW1vZGU6bHItdGI7ZGlyZWN0aW9uOmx0cjt0ZXh0LWFuY2hvcjpzdGFydDtmaWxsOiNmZmZmZmY7ZmlsbC1vcGFjaXR5OjE7c3Ryb2tlOm5vbmU7c3Ryb2tlLXdpZHRoOjAiIHhtbDpzcGFjZT0icHJlc2VydmUiPjx0c3BhbiBzdHlsZT0iZm9udC1zdHlsZTpub3JtYWw7Zm9udC12YXJpYW50Om5vcm1hbDtmb250LXdlaWdodDpib2xkO2ZvbnQtc3RyZXRjaDpub3JtYWw7Zm9udC1zaXplOjQwcHg7Zm9udC1mYW1pbHk6Um9ib3RvOy1pbmtzY2FwZS1mb250LXNwZWNpZmljYXRpb246J1JvYm90byBCb2xkJztmaWxsOiNiZWE0NWQ7ZmlsbC1vcGFjaXR5OjEiIHk9IjI3Ny42MDkzOCIgeD0iNDAwLjE4MzU5IiBpZD0idHNwYW4zIj5GUEdBPC90c3Bhbj48L3RleHQ+JiN4YTsgICAgPHJlY3QgeT0iMTgyLjk2MjAxIiB4PSIyMTguNDk5OTciIGhlaWdodD0iNyIgd2lkdGg9Ijc1IiBpZD0icmVjdDMiIHN0eWxlPSJmaWxsOiNiZWE0NWQ7c3Ryb2tlLXdpZHRoOjAiLz4mI3hhOyAgICA8cmVjdCB0cmFuc2Zvcm09InJvdGF0ZSgtNDUpIiB5PSIyNzcuODI2MjMiIHg9IjMxLjE3OTQxOSIgaGVpZ2h0PSI3IiB3aWR0aD0iNTAiIGlkPSJyZWN0My0zIiBzdHlsZT0iZmlsbDojYmVhNDVkO3N0cm9rZS13aWR0aDowIi8+JiN4YTsgICAgPHJlY3QgdHJhbnNmb3JtPSJyb3RhdGUoNDUpIiB5PSItODEuMTc5NDg5IiB4PSIyMzQuODI2MTciIGhlaWdodD0iNyIgd2lkdGg9IjUwIiBpZD0icmVjdDMtMy0yIiBzdHlsZT0iZmlsbDojYmVhNDVkO3N0cm9rZS13aWR0aDowIi8+JiN4YTsgIDwvZz4mI3hhOzwvc3ZnPg==;fillColor=none;strokeColor=none;" vertex="1" parent="1">
          <mxGeometry y="160" width="512" height="288" as="geometry" />
        </mxCell>
        <mxCell id="8i4fituLQPOiyPfPjGGb-2" value="" style="endArrow=classic;startArrow=classic;html=1;rounded=0;" edge="1" parent="1">
          <mxGeometry width="50" height="50" relative="1" as="geometry">
            <mxPoint y="150" as="sourcePoint" />
            <mxPoint x="510" y="150" as="targetPoint" />
          </mxGeometry>
        </mxCell>
        <mxCell id="8i4fituLQPOiyPfPjGGb-3" value="" style="endArrow=classic;startArrow=classic;html=1;rounded=0;" edge="1" parent="1">
          <mxGeometry width="50" height="50" relative="1" as="geometry">
            <mxPoint x="520" y="450" as="sourcePoint" />
            <mxPoint x="520" y="160" as="targetPoint" />
          </mxGeometry>
        </mxCell>
        <mxCell id="8i4fituLQPOiyPfPjGGb-4" value="512" style="text;html=1;align=center;verticalAlign=middle;whiteSpace=wrap;rounded=0;" vertex="1" parent="1">
          <mxGeometry x="210" y="130" width="60" height="20" as="geometry" />
        </mxCell>
        <mxCell id="8i4fituLQPOiyPfPjGGb-5" value="288" style="text;html=1;align=center;verticalAlign=middle;whiteSpace=wrap;rounded=0;" vertex="1" parent="1">
          <mxGeometry x="520" y="310" width="30" height="20" as="geometry" />
        </mxCell>
        <mxCell id="8i4fituLQPOiyPfPjGGb-8" value="&lt;font color=&quot;#ff0000&quot;&gt;130&lt;/font&gt;" style="text;html=1;align=center;verticalAlign=middle;whiteSpace=wrap;rounded=0;" vertex="1" parent="1">
          <mxGeometry x="319" y="250" width="30" height="20" as="geometry" />
        </mxCell>
        <mxCell id="8i4fituLQPOiyPfPjGGb-9" value="" style="endArrow=classic;startArrow=classic;html=1;rounded=0;fillColor=#FF0000;strokeColor=#FF0000;" edge="1" parent="1">
          <mxGeometry width="50" height="50" relative="1" as="geometry">
            <mxPoint x="352" y="302" as="sourcePoint" />
            <mxPoint x="259" y="208" as="targetPoint" />
          </mxGeometry>
        </mxCell>
        <mxCell id="8i4fituLQPOiyPfPjGGb-12" value="" style="endArrow=none;html=1;rounded=0;strokeColor=#FF0000;" edge="1" parent="1">
          <mxGeometry width="50" height="50" relative="1" as="geometry">
            <mxPoint x="502" y="438" as="sourcePoint" />
            <mxPoint x="502" y="448" as="targetPoint" />
            <Array as="points" />
          </mxGeometry>
        </mxCell>
        <mxCell id="8i4fituLQPOiyPfPjGGb-13" value="" style="endArrow=none;html=1;rounded=0;strokeColor=#FF0000;" edge="1" parent="1">
          <mxGeometry width="50" height="50" relative="1" as="geometry">
            <mxPoint x="502" y="437" as="sourcePoint" />
            <mxPoint x="512" y="437" as="targetPoint" />
            <Array as="points" />
          </mxGeometry>
        </mxCell>
        <mxCell id="8i4fituLQPOiyPfPjGGb-14" value="&lt;font style=&quot;font-size: 9px;&quot;&gt;10 × 10&lt;/font&gt;" style="text;html=1;align=center;verticalAlign=middle;whiteSpace=wrap;rounded=0;" vertex="1" parent="1">
          <mxGeometry x="515" y="470" width="35" height="12" as="geometry" />
        </mxCell>
        <mxCell id="8i4fituLQPOiyPfPjGGb-15" value="" style="endArrow=classic;html=1;rounded=0;exitX=0.25;exitY=0;exitDx=0;exitDy=0;strokeColor=#FF0000;" edge="1" parent="1" source="8i4fituLQPOiyPfPjGGb-14">
          <mxGeometry width="50" height="50" relative="1" as="geometry">
            <mxPoint x="525.77" y="454" as="sourcePoint" />
            <mxPoint x="507.00076923076927" y="442" as="targetPoint" />
          </mxGeometry>
        </mxCell>
        <mxCell id="8i4fituLQPOiyPfPjGGb-17" value="" style="endArrow=classic;startArrow=classic;html=1;rounded=0;strokeColor=#FF0000;" edge="1" parent="1">
          <mxGeometry width="50" height="50" relative="1" as="geometry">
            <mxPoint x="304" y="348" as="sourcePoint" />
            <mxPoint x="348" y="304" as="targetPoint" />
          </mxGeometry>
        </mxCell>
        <mxCell id="8i4fituLQPOiyPfPjGGb-20" value="&lt;font color=&quot;#ff0000&quot;&gt;65&lt;/font&gt;" style="text;html=1;align=center;verticalAlign=middle;whiteSpace=wrap;rounded=0;" vertex="1" parent="1">
          <mxGeometry x="319" y="325" width="30" height="20" as="geometry" />
        </mxCell>
        <mxCell id="8i4fituLQPOiyPfPjGGb-21" value="" style="endArrow=none;html=1;rounded=0;strokeColor=#FF0000;" edge="1" parent="1">
          <mxGeometry width="50" height="50" relative="1" as="geometry">
            <mxPoint x="219" y="350" as="sourcePoint" />
            <mxPoint x="219" y="254" as="targetPoint" />
          </mxGeometry>
        </mxCell>
        <mxCell id="8i4fituLQPOiyPfPjGGb-22" value="" style="rounded=0;whiteSpace=wrap;html=1;strokeColor=#FF0000;fillColor=none;" vertex="1" parent="1">
          <mxGeometry x="219" y="345" width="5" height="5" as="geometry" />
        </mxCell>
        <mxCell id="8i4fituLQPOiyPfPjGGb-26" value="" style="endArrow=classic;startArrow=classic;html=1;rounded=0;strokeColor=#FF0000;" edge="1" parent="1">
          <mxGeometry width="50" height="50" relative="1" as="geometry">
            <mxPoint x="164" y="304" as="sourcePoint" />
            <mxPoint x="211" y="257" as="targetPoint" />
          </mxGeometry>
        </mxCell>
        <mxCell id="8i4fituLQPOiyPfPjGGb-27" value="&lt;font color=&quot;#ff0000&quot;&gt;65&lt;/font&gt;" style="text;html=1;align=center;verticalAlign=middle;whiteSpace=wrap;rounded=0;" vertex="1" parent="1">
          <mxGeometry x="161" y="263" width="30" height="20" as="geometry" />
        </mxCell>
        <mxCell id="8i4fituLQPOiyPfPjGGb-29" value="" style="endArrow=classic;startArrow=classic;html=1;rounded=0;fillColor=#FF0000;strokeColor=#FF0000;" edge="1" parent="1">
          <mxGeometry width="50" height="50" relative="1" as="geometry">
            <mxPoint x="305" y="254" as="sourcePoint" />
            <mxPoint x="259" y="208" as="targetPoint" />
          </mxGeometry>
        </mxCell>
        <mxCell id="8i4fituLQPOiyPfPjGGb-31" value="&lt;font color=&quot;#ff0000&quot;&gt;65&lt;/font&gt;" style="text;html=1;align=center;verticalAlign=middle;whiteSpace=wrap;rounded=0;" vertex="1" parent="1">
          <mxGeometry x="270" y="210" width="30" height="20" as="geometry" />
        </mxCell>
        <mxCell id="8i4fituLQPOiyPfPjGGb-32" value="" style="endArrow=classic;startArrow=classic;html=1;rounded=0;fillColor=#FF0000;strokeColor=#FF0000;" edge="1" parent="1">
          <mxGeometry width="50" height="50" relative="1" as="geometry">
            <mxPoint x="210" y="350" as="sourcePoint" />
            <mxPoint x="164" y="304" as="targetPoint" />
          </mxGeometry>
        </mxCell>
        <mxCell id="8i4fituLQPOiyPfPjGGb-33" value="&lt;font color=&quot;#ff0000&quot;&gt;65&lt;/font&gt;" style="text;html=1;align=center;verticalAlign=middle;whiteSpace=wrap;rounded=0;" vertex="1" parent="1">
          <mxGeometry x="161" y="325" width="30" height="20" as="geometry" />
        </mxCell>
        <mxCell id="8i4fituLQPOiyPfPjGGb-34" value="" style="endArrow=none;html=1;rounded=0;fillColor=#FF0000;strokeColor=#FF0000;" edge="1" parent="1">
          <mxGeometry width="50" height="50" relative="1" as="geometry">
            <mxPoint x="211" y="352" as="sourcePoint" />
            <mxPoint x="303" y="258" as="targetPoint" />
          </mxGeometry>
        </mxCell>
        <mxCell id="8i4fituLQPOiyPfPjGGb-35" value="" style="endArrow=none;html=1;rounded=0;strokeColor=#FF0000;" edge="1" parent="1">
          <mxGeometry width="50" height="50" relative="1" as="geometry">
            <mxPoint x="210" y="255.0004763527685" as="sourcePoint" />
            <mxPoint x="304" y="348" as="targetPoint" />
          </mxGeometry>
        </mxCell>
        <mxCell id="8i4fituLQPOiyPfPjGGb-37" value="" style="endArrow=classic;html=1;rounded=0;" edge="1" parent="1">
          <mxGeometry width="50" height="50" relative="1" as="geometry">
            <mxPoint x="259" y="256" as="sourcePoint" />
            <mxPoint x="259" y="303" as="targetPoint" />
          </mxGeometry>
        </mxCell>
        <mxCell id="8i4fituLQPOiyPfPjGGb-38" value="" style="endArrow=none;html=1;rounded=0;entryX=0;entryY=1;entryDx=0;entryDy=0;strokeColor=#FF0000;" edge="1" parent="1" target="8i4fituLQPOiyPfPjGGb-22">
          <mxGeometry width="50" height="50" relative="1" as="geometry">
            <mxPoint x="300" y="350" as="sourcePoint" />
            <mxPoint x="370" y="270" as="targetPoint" />
          </mxGeometry>
        </mxCell>
        <mxCell id="8i4fituLQPOiyPfPjGGb-39" value="&lt;font style=&quot;font-size: 8px;&quot;&gt;(256, 144)&lt;/font&gt;&lt;div&gt;&lt;font style=&quot;font-size: 8px;&quot;&gt;中心&lt;/font&gt;&lt;/div&gt;" style="text;html=1;align=center;verticalAlign=middle;whiteSpace=wrap;rounded=0;" vertex="1" parent="1">
          <mxGeometry x="226" y="230" width="60" height="25" as="geometry" />
        </mxCell>
        <mxCell id="8i4fituLQPOiyPfPjGGb-40" value="&lt;span style=&quot;font-size: 8px;&quot;&gt;金の線の幅: 全て7&lt;/span&gt;" style="text;html=1;align=center;verticalAlign=middle;whiteSpace=wrap;rounded=0;" vertex="1" parent="1">
          <mxGeometry x="270" y="295.75" width="70" height="16.5" as="geometry" />
        </mxCell>
        <mxCell id="8i4fituLQPOiyPfPjGGb-41" value="" style="endArrow=classic;startArrow=classic;html=1;rounded=0;strokeColor=#FF0000;" edge="1" parent="1">
          <mxGeometry width="50" height="50" relative="1" as="geometry">
            <mxPoint x="219" y="354" as="sourcePoint" />
            <mxPoint x="293" y="353" as="targetPoint" />
          </mxGeometry>
        </mxCell>
        <mxCell id="8i4fituLQPOiyPfPjGGb-42" value="&lt;font color=&quot;#ff0000&quot;&gt;75&lt;/font&gt;" style="text;html=1;align=center;verticalAlign=middle;whiteSpace=wrap;rounded=0;" vertex="1" parent="1">
          <mxGeometry x="242" y="356" width="30" height="10" as="geometry" />
        </mxCell>
        <mxCell id="8i4fituLQPOiyPfPjGGb-43" value="" style="endArrow=classic;startArrow=classic;html=1;rounded=0;strokeColor=#FF0000;" edge="1" parent="1">
          <mxGeometry width="50" height="50" relative="1" as="geometry">
            <mxPoint x="220" y="336" as="sourcePoint" />
            <mxPoint x="255" y="300" as="targetPoint" />
          </mxGeometry>
        </mxCell>
        <mxCell id="8i4fituLQPOiyPfPjGGb-44" value="&lt;font color=&quot;#ff0000&quot;&gt;50&lt;/font&gt;" style="text;html=1;align=center;verticalAlign=middle;whiteSpace=wrap;rounded=0;" vertex="1" parent="1">
          <mxGeometry x="215" y="309" width="30" height="10" as="geometry" />
        </mxCell>
      </root>
    </mxGraphModel>
  </diagram>
</mxfile>
